<svg width="24" height="25" viewBox="0 0 24 25" fill="none" xmlns="http://www.w3.org/2000/svg">
<path d="M23.9873 12.7339C23.9873 11.7096 23.9057 10.9622 23.729 10.1871H12.239V14.81H18.9833C18.8474 15.9589 18.1132 17.689 16.4814 18.8516L16.4585 19.0064L20.0915 21.8712L20.3431 21.8968C22.6547 19.7237 23.9873 16.5263 23.9873 12.7339" fill="#4285F4"/>
<path d="M12.2391 24.9141C15.5433 24.9141 18.3171 23.8068 20.3432 21.8968L16.4815 18.8516C15.4481 19.5852 14.0611 20.0973 12.2391 20.0973C9.00291 20.0973 6.25622 17.9243 5.27711 14.9208L5.13359 14.9332L1.35604 17.9091L1.30664 18.0489C3.31906 22.1181 7.45273 24.9141 12.2391 24.9141Z" fill="#34A853"/>
<path d="M5.27702 14.9208C5.01867 14.1457 4.86916 13.3152 4.86916 12.4571C4.86916 11.5989 5.01867 10.7684 5.26343 9.99332L5.25658 9.82825L1.4317 6.80458L1.30655 6.86517C0.47714 8.55382 0.0012207 10.4501 0.0012207 12.4571C0.0012207 14.464 0.47714 16.3602 1.30655 18.0489L5.27702 14.9208" fill="#FBBC05"/>
<path d="M12.2391 4.8167C14.5371 4.8167 16.0871 5.8271 16.971 6.67147L20.4248 3.23884C18.3036 1.23187 15.5433 0 12.2391 0C7.45273 0 3.31906 2.7959 1.30664 6.86517L5.26351 9.99332C6.25622 6.98979 9.00291 4.8167 12.2391 4.8167" fill="#EB4335"/>
</svg>
